<?xml version="1.0" standalone="yes"?>
<svg xmlns="http://www.w3.org/2000/svg" xmlns:xlink="http://www.w3.org/1999/xlink" xmlns:svg="http://www.w3.org/2000/svg" xmlns:dc="http://purl.org/dc/elements/1.1/" xmlns:cc="http://web.resource.org/cc/" xmlns:rdf="http://www.w3.org/1999/02/22-rdf-syntax-ns#" width="659" height="523">
    <path style="fill:#5d932e; stroke:none;" d="M340 87C332.785 105.731 324.795 127.975 322.925 148C322.467 152.907 320.439 158.938 321.317 163.816C322.135 168.358 327.808 173.925 330.083 178.17C334.019 185.512 335.923 193.839 337.246 202C339.399 215.274 333.838 231.766 339 244L340 244L346 204L344 204L344 212L341 212C337.552 185.937 336.275 158.496 338.09 132C338.929 119.746 344.758 98.3382 340 87z"/>
    <path style="fill:#6cac34; stroke:none;" d="M341 88C340.973 128.772 332.01 171.669 341 212L344 212C344.187 195.118 353.055 178.52 355.741 162C358.027 147.933 350.984 130.698 348.12 117C346.223 107.932 345.373 96.1656 341 88z"/>
    <path style="fill:#9dbb7b; stroke:none;" d="M336.333 96.6667L336.667 97.3333L336.333 96.6667z"/>
    <path style="fill:#afc1a1; stroke:none;" d="M403 99L403 100L408 100L403 99z"/>
    <path style="fill:#b2d390; stroke:none;" d="M344.333 100.667L344.667 101.333L344.333 100.667z"/>
    <path style="fill:#5d932e; stroke:none;" d="M349 200L350 200L350 196L351 196L351 200L352 200L355 192L361 192L360 197L361 197L374.449 159L383.039 149.207L397 158L394 147L372 147C378.754 128.413 387.895 111.824 405 101C395.983 97.8012 381.528 108.543 375 113.924C365.819 121.49 355.814 133.679 354.316 146C353.691 151.136 356.52 155.842 355.737 161C353.631 174.868 348.881 185.632 349 200z"/>
    <path style="fill:#aac490; stroke:none;" d="M396.667 101.333L397.333 101.667L396.667 101.333z"/>
    <path style="fill:#f4fdd6; stroke:none;" d="M397 107L407 102C402.443 101.478 399.768 103.476 397 107z"/>
    <path style="fill:#bcd4a6; stroke:none;" d="M345.333 104.667L345.667 105.333L345.333 104.667z"/>
    <path style="fill:#f4fdd6; stroke:none;" d="M385 119L391 117L390 114L397 107L385 119M282 108L282 109L296 110L282 108z"/>
    <path style="fill:#bcd4a6; stroke:none;" d="M280 109L280 110L283 110L280 109z"/>
    <path style="fill:#4e7b25; stroke:none;" d="M279 110L279 111C298.83 117.326 310.259 131.687 312 153C305.417 146.992 297.097 140.913 288 140L288 141L293 142L293 143L282 146L282 147C292.024 148.027 299.954 155.52 302.946 165C304.478 169.853 303.578 176.879 308 180L308 174L310 177L325 172L325 176L328 175C326.825 170.562 322.642 167.989 321.6 163.816C319.641 155.971 324.984 147.018 323.428 139C319.553 119.029 297.457 107.67 279 110z"/>
    <path style="fill:#aac490; stroke:none;" d="M289.667 109.333L290.333 109.667L289.667 109.333z"/>
    <path style="fill:#92ad79; stroke:none;" d="M274 111L274 112L280 112L274 111z"/>
    <path style="fill:#aac490; stroke:none;" d="M294.667 110.333L295.333 110.667L294.667 110.333z"/>
    <path style="fill:#9dbb7b; stroke:none;" d="M284.667 112.333L285.333 112.667L284.667 112.333z"/>
    <path style="fill:#e5f9b9; stroke:none;" d="M347.333 112.667L347.667 113.333L347.333 112.667z"/>
    <path style="fill:#bcd4a6; stroke:none;" d="M348 117L348 120L349 120L348 117z"/>
    <path style="fill:#9dbb7b; stroke:none;" d="M328.333 124.667L328.667 125.333L328.333 124.667z"/>
    <path style="fill:#d6e2b1; stroke:none;" d="M350.333 126.667L350.667 127.333L350.333 126.667z"/>
    <path style="fill:#f4fdd6; stroke:none;" d="M266 143C277.976 138.355 284.807 139.927 297 142C292.08 135.03 270.667 136.105 266 143M353 138L354 144L355 144L357 138L353 138z"/>
    <path style="fill:#6cac34; stroke:none;" d="M258 171L260 172L263 172L264 172L264 168L265 168L266 173L267 173C267.044 160.257 273.059 148.125 287 148L287 147L282 147L282 146L293 143C273.887 127.771 251.596 150.798 258 171z"/>
    <path style="fill:#e5f9b9; stroke:none;" d="M379 145L379 146L391 146L379 145z"/>
    <path style="fill:#d6e2b1; stroke:none;" d="M391.667 146.333L392.333 146.667L391.667 146.333z"/>
    <path style="fill:#f4fdd6; stroke:none;" d="M272 155L282 149C277.413 147.747 273.924 151.089 272 155z"/>
    <path style="fill:#9dbb7b; stroke:none;" d="M311.333 148.667L311.667 149.333L311.333 148.667z"/>
    <path style="fill:#e5f9b9; stroke:none;" d="M380 149L380 150L385 149L380 149z"/>
    <path style="fill:#4e7b25; stroke:none;" d="M393 148L397 158L392 158L396 172C400.383 165.025 403.095 150.92 393 148z"/>
    <path style="fill:#f4fdd6; stroke:none;" d="M295 152L299 157L295 152M388 152L391 158L388 152z"/>
    <path style="fill:#afc1a1; stroke:none;" d="M255 157L255 162L256 162L255 157z"/>
    <path style="fill:#4e7b25; stroke:none;" d="M267 164L267 173L266 173L265 168L264 168L264 172L263 172L262 170L261 172L260 170L259 170C260.414 177.313 266.177 184.544 272 189L267 164z"/>
    <path style="fill:#aac490; stroke:none;" d="M268 164L268 171L269 171L268 164z"/>
    <path style="fill:#9dbb7b; stroke:none;" d="M304.333 172.667L304.667 173.333L304.333 172.667z"/>
    <path style="fill:#35571b; stroke:none;" d="M308 174C307.407 183.137 305.303 192.148 310.14 200.999C313.73 207.57 321.01 210.347 323 218L322 218L320 213L314 213L315 216L311 217L312 220L306 218L317 240L314 237L313 237L313 240L308 238C313.175 249.3 321.337 253.024 333 255C331.126 260.953 319.869 265.042 314 264C319.49 272.276 333.208 267.848 341 267.345C346.19 267.01 350.079 270.936 355 271.306C363.04 271.91 375.866 263.538 378 256L377 256C373.225 259.817 351.971 257.268 351 265L345 265C347.062 254.344 358.833 247.893 369 247L367 237L364 240C362.797 233.071 356.462 234.824 354 240C349.366 239.793 342.472 246.126 338.858 241.677C335.51 237.557 337.939 230.765 337.996 226C338.14 213.87 338.419 201.763 334.965 190C333.331 184.438 332.054 175.729 325 176L325 172C317.639 172.554 315.778 177.611 308 174z"/>
    <path style="fill:#b2d390; stroke:none;" d="M366.333 174.667L366.667 175.333L366.333 174.667z"/>
    <path style="fill:#bcd4a6; stroke:none;" d="M269 176L269 179L270 179L269 176z"/>
    <path style="fill:#92ad79; stroke:none;" d="M305 178L305 181L306 181L305 178z"/>
    <path style="fill:#b2d390; stroke:none;" d="M270.333 181.667L270.667 182.333L270.333 181.667z"/>
    <path style="fill:#bcd4a6; stroke:none;" d="M364.333 182.667L364.667 183.333L364.333 182.667z"/>
    <path style="fill:#9dbb7b; stroke:none;" d="M271.333 185.667L271.667 186.333L271.333 185.667z"/>
    <path style="fill:#bcd4a6; stroke:none;" d="M306.333 186.667L306.667 187.333L306.333 186.667z"/>
    <path style="fill:#afc1a1; stroke:none;" d="M363 187L363 197L364 197L363 187z"/>
    <path style="fill:#92ad79; stroke:none;" d="M307.333 190.667L307.667 191.333L307.333 190.667z"/>
    <path style="fill:#4e7b25; stroke:none;" d="M348 192L340 244L354 240C357.119 235.466 361.947 233.501 364 240L367 237L371 240C374.628 235.423 378.412 235.016 384 235C378.377 227.841 370.968 228.474 363 231L363 218L362 218L355 224L351 222L348 222L347 228L346 228C346.769 213.168 362.959 206.357 363 192L362 192L361 197L360 197L361 192L355 192L352 200L351 200L351 196L350 196L350 200L349 200L348 192z"/>
    <path style="fill:#f4fdd6; stroke:none;" d="M376 194L376 195L388 197L376 194M275 204L288 196C282.619 194.155 276.493 198.953 275 204z"/>
    <path style="fill:#6cac34; stroke:none;" d="M274 216L276 217L277 217L277 213L278 213L279 215L285 201L299 197C284.792 190.172 274.001 202.847 274 216z"/>
    <path style="fill:#f4fdd6; stroke:none;" d="M364 195L364 200L374 196L374 195L364 195z"/>
    <path style="fill:#b2d390; stroke:none;" d="M374 195L374 196L378 196L374 195z"/>
    <path style="fill:#6cac34; stroke:none;" d="M378 195C379.176 197.434 384.443 199.345 381 201L381 202L388 206C398.078 200.045 383.429 195.702 378 195z"/>
    <path style="fill:#afc1a1; stroke:none;" d="M308.333 196.667L308.667 197.333L308.333 196.667z"/>
    <path style="fill:#5d932e; stroke:none;" d="M364 197L363 197C358.884 208.587 346.326 214.131 346 228L347 228L348 222L351 222L355 224L362 220L362 218L364 219C368.343 211.486 375.573 203.691 384 201C380.503 191.462 364.525 201.07 364 197M285 201L286 204L281 206L281 207L309 223L306 218L312 220L311 217L315 216L314 213L320 213L322 218L323 218L310 200L308 202C300.875 194.806 293.4 198.355 285 201M392 202L389 205C389.625 209.838 389.836 216.203 395 218C395.933 211.652 397.558 207.863 394 202L392 202z"/>
    <path style="fill:#9dbb7b; stroke:none;" d="M281 209L284 208L281 209z"/>
    <path style="fill:#f4fdd6; stroke:none;" d="M372 208C365.255 214.892 360.644 221.1 363 231L381 231C378.319 226.123 371.254 225.777 367 229L366 229C359.709 219.312 373.296 216.396 372 208z"/>
    <path style="fill:#aac490; stroke:none;" d="M273 209L273 216L274 216L273 209z"/>
    <path style="fill:#5d932e; stroke:none;" d="M277 213L277 217L276 217L275 215L275 224L276 224L277 213z"/>
    <path style="fill:#aac490; stroke:none;" d="M390 213L390 227L391 227L390 213z"/>
    <path style="fill:#bcd4a6; stroke:none;" d="M395.333 214.667L395.667 215.333L395.333 214.667z"/>
    <path style="fill:#4e7b25; stroke:none;" d="M391 216L391 225L392 225C393.338 221.245 394.036 218.931 391 216z"/>
    <path style="fill:#afc1a1; stroke:none;" d="M276 221L276 227L277 227L276 221z"/>
    <path style="fill:#b2d390; stroke:none;" d="M370 228L370 229L374 229L370 228z"/>
    <path style="fill:#5d932e; stroke:none;" d="M288 240L313 237L314 237L317 240C313.552 228.011 292.813 230.215 288 240z"/>
    <path style="fill:#b2d390; stroke:none;" d="M313 232L312 234L314 234L313 232z"/>
    <path style="fill:#afc1a1; stroke:none;" d="M369.333 242.667L369.667 243.333L369.333 242.667z"/>
    <path style="fill:#aac490; stroke:none;" d="M376 245L376 246L382 246L376 245M369 246L369 247L372 247L369 246z"/>
    <path style="fill:#5d932e; stroke:none;" d="M347 261L348 261L349 258L378 247C368.449 243.105 349.141 250.441 347 261z"/>
    <path style="fill:#4e7b25; stroke:none;" d="M349 258L346 259L345 265L351 265L370 256L374 259L379 257L382 246L349 258z"/>
    <path style="fill:#afc1a1; stroke:none;" d="M382.333 246.667L382.667 247.333L382.333 246.667z"/>
    <path style="fill:#5d932e; stroke:none;" d="M306 258L311 262L333 256C326.793 251.903 309.1 248.955 306 258z"/>
    <path style="fill:#92ad79; stroke:none;" d="M379 255L380 256L379 255z"/>
    <path style="fill:#c09d54; stroke:none;" d="M305 256C300.106 260.393 299.673 263.123 302 269L308 267L313 271C314.687 264.723 308.962 260.391 305 256z"/>
    <path style="fill:#4e7b25; stroke:none;" d="M311 262L307 257C310.178 268.281 329.657 265.606 333 256C324.971 256.067 317.913 258.072 311 262z"/>
    <path style="fill:#f4fdd6; stroke:none;" d="M377 260L388 267L380 258L377 260z"/>
    <path style="fill:#c4ab60; stroke:none;" d="M371 266L376 265L378 260L371 266z"/>
    <path style="fill:#7f560d; stroke:none;" d="M378 261L374 269L356 271L356 272C366.56 279.206 366.089 281.114 361 292L344 289L351 306L344 304L343 309L332 309L330 308C328.677 304.823 325.527 300.577 326.133 297.015C327.272 290.317 337.301 285.964 343 288L346 278C336.532 280.696 337.662 271.748 330 269C331.843 272.334 337.386 278.052 337.5 282C337.592 285.161 334.747 285.31 333 284L325 292L322 291L321 286L320 286C320.69 291.492 321.333 295.008 316 298L316 299C323.55 298.133 334.873 310.682 331.759 318.907C329.472 324.949 319.373 327.133 314 329L308 312L307 312L311 332C302.322 333.854 293.64 341.211 290 329L289 329L290 338L278 341L276 340L275 336L274 336L273 344L279 349L280 349L279 344C295.929 337.47 294.288 349.525 304 360C296.392 363.381 288.582 364.265 284 356L283 356C282.95 362.247 279.517 363.307 274 362L290 373L291 373C289.252 365.494 296.733 360.979 304 364.117C309.855 366.646 316.012 375.14 318 381L303.015 380.686L293 377C293.511 386.43 287.232 385.731 280 385L303 392C303.891 382.932 320.028 382.71 327 384C339.607 369.564 350.01 378.538 363 385C358.95 390.02 351.225 393.967 345.039 395.8C340.123 397.257 338.078 394.555 335 400C344.131 399.306 350.423 402.428 356 410L351 412L351 413C357.874 411.577 369.514 408.474 372 418L386 418L386 417L381 416C386.679 412.14 395.565 408.705 398 402L390 408L376 412L379 408C375.814 405.383 373.913 404.351 375 400L360.039 407.423L347 400C352.125 390.447 367.697 386.145 377 389L371 382C366.489 382.784 364.024 382.619 361 379C341.725 375.53 366.04 355.688 376 358L376 357C372.348 352.737 375.723 349.162 378.316 345C380.97 340.738 385.233 336.37 387.158 331.83C390.365 324.268 391.533 309.317 399 305L400 288L399 288L393 293L390 291L393 276L391 282L379 281L380 283L379 283L373 284C376.057 286.088 379.378 288.122 381.731 291.04C385.338 295.513 381.887 305.034 376.319 306.833C373.069 307.884 369.201 306.333 366 305.845C363.069 305.398 358.603 306.482 357.255 302.898C355.697 298.754 361.874 292.957 364.13 290C366.501 286.893 368.832 284.279 372 282L378 261z"/>
    <path style="fill:#e9bd59; stroke:none;" d="M379 261L376 270C380.297 268.915 384.405 267.74 387 272C382.206 272.794 387.088 277.492 390 278L391 271L379 261z"/>
    <path style="fill:#a57d26; stroke:none;" d="M298 264L300 276C305.311 275.509 309.897 275.543 312 270L308 267L302 269L300 264L298 264z"/>
    <path style="fill:#b38c3e; stroke:none;" d="M366 267L366 269L374 269L376 265L375 264L366 267z"/>
    <path style="fill:#d1a844; stroke:none;" d="M296 266C291.585 270.871 290.216 273.865 293 280C298.475 277.239 299.4 270.976 296 266z"/>
    <path style="fill:#7f560d; stroke:none;" d="M314 266L311 273L326 269L314 266z"/>
    <path style="fill:#7d8b4b; stroke:none;" d="M340.667 266.333L341.333 266.667L340.667 266.333z"/>
    <path style="fill:#c4ab60; stroke:none;" d="M333 270L341 270L350 271C346.405 265.391 337.944 266.894 333 270z"/>
    <path style="fill:#bf983b; stroke:none;" d="M375 269L373 281L374 281L374 277L384 275L384 271L387 272C385.821 266.469 379.218 269.461 375 269z"/>
    <path style="fill:#7f560d; stroke:none;" d="M298 269C297.922 275.582 293.816 283.517 286 281L283 293L284 293C285.141 285.609 291.66 282.64 298 280L301 295L302 295C301.396 287.344 298.316 280.702 306 276L306 275L300 276L298 269z"/>
    <path style="fill:#d8b359; stroke:none;" d="M301 286L304 284L308 288L312 288L311 283L313 288L314 288L315 283L317 283L318 286L319 286L318 278L319 278L323 279L325 282L326 282L326 274L327 274L327 277L335 278C330.279 262.119 298.136 272.647 301 286z"/>
    <path style="fill:#b38c3e; stroke:none;" d="M335 270C336.839 275.595 343.406 274.536 348 277L349 277L354 273L354 271L341 270L335 270z"/>
    <path style="fill:#c09d54; stroke:none;" d="M384 271L384 282L391 282L393 276L393 275L389 272L390 278L384 271z"/>
    <path style="fill:#e9bd59; stroke:none;" d="M347 279L367 282C363.873 272.298 352.336 269.927 347 279z"/>
    <path style="fill:#a57d26; stroke:none;" d="M290 274L287 283L293 281L290 274z"/>
    <path style="fill:#b38c3e; stroke:none;" d="M326 274C326.122 279.035 327.034 283.864 333 283L334 286C345.329 280.566 328.469 276.896 326 274z"/>
    <path style="fill:#8c6417; stroke:none;" d="M336 274C338.652 280.487 342.313 279.846 348 277L336 274z"/>
    <path style="fill:#a57d26; stroke:none;" d="M374 277L374 281L371 280L370 282L370 283L380 283L379 281L380 281L384 282L384 275L374 277z"/>
    <path style="fill:#d8b359; stroke:none;" d="M393 276L392 286L395 284L396 291C402.775 287.039 398.26 279.21 393 276z"/>
    <path style="fill:#8c6417; stroke:none;" d="M318 278L322 291L325 292L332 286C326.439 285.934 323.456 284.976 323 279L318 278z"/>
    <path style="fill:#d1a844; stroke:none;" d="M346 278C347.584 281.94 350.014 281.953 354 282L354 288L357 284L359 286L360 286L367 282L346 278z"/>
    <path style="fill:#bf983b; stroke:none;" d="M345 279L343 290L361 292L365 285L360 286L359 286L357 284L354 288L354 282L345 279z"/>
    <path style="fill:#ebc474; stroke:none;" d="M286 289L288 287L287 296L291 296L292 288L298 290L299 290L298 280C293.029 281.432 286.991 283.496 286 289z"/>
    <path style="fill:#b29655; stroke:none;" d="M324 280C321.565 287.039 331.838 288.422 333 283L327 280L325 282L324 280z"/>
    <path style="fill:#b38c3e; stroke:none;" d="M311 283L312 288L308 288L304 284L302 285L302 293L315 294L316 287L320 289L320 285L317 283L315 283L314 288L313 288L313 283L311 283z"/>
    <path style="fill:#d8b359; stroke:none;" d="M360 296L364 293L376 292L377 295L379 293L383 295C384.019 289.922 375.21 282.441 370.039 283.737C365.368 284.908 361.712 291.95 360 296z"/>
    <path style="fill:#b38c3e; stroke:none;" d="M394 284L391 285L390 291L393 293L398 292L398 291L394 284z"/>
    <path style="fill:#c09d54; stroke:none;" d="M299 286L299 290L298 290L297 288L292 288L291 296L287 296C288.778 292.447 290.617 289.698 287 287L287 289L284 288L285 305C289.797 303.79 292.385 303.343 293 298L301 305L302 305L299 286z"/>
    <path style="fill:#e9bd59; stroke:none;" d="M328 293L332 292L338 297L345 296C348.426 283.095 333.066 287.89 328 293z"/>
    <path style="fill:#a57d26; stroke:none;" d="M316 287L315 294C307.152 293.491 301.41 290.27 302 301L303 301L304 299C307.316 304.919 311.908 302.113 317 300L316 298C320.596 296.31 320.945 293.605 321 289L316 287z"/>
    <path style="fill:#c4ab60; stroke:none;" d="M400.333 289.667L400.667 290.333L400.333 289.667M281 290L274 306L278 305C279.503 299.526 283.506 295.974 281 290z"/>
    <path style="fill:#a57d26; stroke:none;" d="M282 292C282 300.723 283.667 307.549 273 306L274 314L275 312L276 312L276 319C283.777 315.538 287.312 299.011 282 292z"/>
    <path style="fill:#d1a844; stroke:none;" d="M331 292L327 293C324.857 297.731 328.607 303.943 333 299L334 299C334.404 304.995 336.969 307.726 343 306L341 303C334.599 303.568 335.816 298.634 337 294L331 292z"/>
    <path style="fill:#a57d26; stroke:none;" d="M364 293C361.835 294.991 358.581 296.395 357.198 299.108C355.971 301.516 356.545 304.576 359.149 305.778C366.343 309.097 381.069 309.103 381 299C374.321 306.595 368.663 303.175 371 293L364 293z"/>
    <path style="fill:#d2b786; stroke:none;" d="M371 292C371.175 297.339 372.857 298.865 378 300C376.973 295.721 375.164 293.485 371 292z"/>
    <path style="fill:#bf983b; stroke:none;" d="M375 292L379 300L383 300L385 294L383 293L377 295L375 292z"/>
    <path style="fill:#d1a844; stroke:none;" d="M400 292L399 304C404.054 301.279 404.309 296.883 402 292L400 292M339 295L340 300L344 298L345 301L347 299L348 302L351 302L347 294L345 296L339 295z"/>
    <path style="fill:#b29655; stroke:none;" d="M370 294C370.062 301.413 378.105 310.485 379 299C374.4 299.092 372.501 297.739 370 294z"/>
    <path style="fill:#f5dc95; stroke:none;" d="M336 296L336 300L341 302L336 296z"/>
    <path style="fill:#c4ab60; stroke:none;" d="M404 297L407 303L404 297z"/>
    <path style="fill:#b38c3e; stroke:none;" d="M293 298C293.544 302.779 298.805 309.943 303 304L293 298z"/>
    <path style="fill:#ebc474; stroke:none;" d="M307 308L311 307C312.828 304.831 313.253 304.967 315 307C318.46 303.721 321.565 303.551 326 305C323.94 293.763 306.867 299.996 307 308z"/>
    <path style="fill:#d2b57c; stroke:none;" d="M335 298C335.165 304.279 338.208 303.46 343 305L342 300L340 302L335 298z"/>
    <path style="fill:#b38c3e; stroke:none;" d="M343 298L343 306L344 306L345 304L351 306L352 302L348 302C347.086 299.734 346.989 299.594 345 301L343 298z"/>
    <path style="fill:#e9bd59; stroke:none;" d="M378 314L379 314L380 311L383 310L384 310L384 312L385 310L386 310L387 318L388 318L389 309L393 310C394.386 305.004 393.039 294.348 385.213 299.758C381.048 302.636 378.521 309.197 378 314z"/>
    <path style="fill:#d1a844; stroke:none;" d="M275 306C281.388 308.757 281.98 304.544 282 299L275 306z"/>
    <path style="fill:#7f560d; stroke:none;" d="M303 299C302.873 302.902 302.401 304.915 299 307L299 308L306 309L308 303L303 299z"/>
    <path style="fill:#b38c3e; stroke:none;" d="M333 299L326 300L330 308L332 307L332 309C335.929 308.455 341.993 310.699 343 306C336.677 307.311 335.577 304 333 299z"/>
    <path style="fill:#a57d26; stroke:none;" d="M403 299L399 304C400.29 308.097 402.992 309.033 407 310L403 299z"/>
    <path style="fill:#7f560d; stroke:none;" d="M283 302C283 309.935 283.142 314.407 276 319L276 312L275 312L274 322C277.783 320.381 281.234 317.502 285 320L286 320L292 312L292 311L286 313L283 302z"/>
    <path style="fill:#a57d26; stroke:none;" d="M292 302L284 304L286 313L299 309L294 302L292 302z"/>
    <path style="fill:#d1a844; stroke:none;" d="M315 307L314 304L311 307L306 307L310 319C312.249 317.594 314.689 318.854 316.833 317.5C322.674 313.811 321.438 310.732 330 312L327 304C322.389 303.967 317.995 302.832 315 307z"/>
    <path style="fill:#d2b57c; stroke:none;" d="M407.333 304.667L407.667 305.333L407.333 304.667z"/>
    <path style="fill:#d8b359; stroke:none;" d="M339 321L348 319L349 316L351 317L351 315L358 319L359 316C361.875 318.396 363.419 318.906 364 316L368 318C360.203 301.326 345.615 306.598 339 321M396 305L392 320L406 318L405 315L407 316L407 315L399 305L396 305M287 320L288 320C291.917 318.458 293.43 321.415 294 325C296.845 324.675 301.298 316.557 302 322L303 322L305 317L306 317L307 320L308 320L304 307C296.822 308.705 287.631 311.7 287 320z"/>
    <path style="fill:#7f560d; stroke:none;" d="M407 307L403 309L407 313L407 307z"/>
    <path style="fill:#a57d26; stroke:none;" d="M305 309L306 312L307 312L307 309L305 309z"/>
    <path style="fill:#c09d54; stroke:none;" d="M389 309L388 317L393 310L389 309z"/>
    <path style="fill:#a57d26; stroke:none;" d="M383 310L380 311L379 314L378 314L378 311L377 311L376 316L388 319L386 310L385 310L384 312L383 310z"/>
    <path style="fill:#bf983b; stroke:none;" d="M319 312L320 320L326 320L326 321L324 321L324 322L332 321C334.263 311.716 326.199 310.757 319 312M407 312L407 316L405 315L406 318L400 317C400.743 320.487 403.255 320.988 406 319L407 323L408 323L407 312z"/>
    <path style="fill:#b38c3e; stroke:none;" d="M319 314C316.385 316.877 314.861 317.637 311 317L311 323L315 323C320.668 322.195 327.441 325.619 331 320L324 322L324 321L326 321L326 320L320 320L319 314z"/>
    <path style="fill:#c09d54; stroke:none;" d="M273 315L273 319L274 319L273 315z"/>
    <path style="fill:#d2b786; stroke:none;" d="M351 315C348.292 322.652 353.092 323.83 360 325C359.564 319.338 356.215 316.731 351 315z"/>
    <path style="fill:#a57d26; stroke:none;" d="M286 316L288 330C291.282 330 290.154 333.653 292.333 335.833C297.185 340.685 302 334.668 302 330L295 328L293 329L292 326L289 328L286 316z"/>
    <path style="fill:#bf983b; stroke:none;" d="M349 316L348 319L338 320L340 325C343.306 322.934 353.105 322.021 349 316M359 316L360 323L370 322L369 317L364 316L359 316M305 317L303 322L302 322L302 319L294 325C293.658 320.603 292.228 319.141 288 318L289 328L292 326L293 329L295 328L302 330L302 335L311 332C310.947 325.701 309.837 321.274 305 317z"/>
    <path style="fill:#e9bd59; stroke:none;" d="M273 323L275 327L283 323L284 323L286 328C290.433 316.615 278.88 318.745 273 323z"/>
    <path style="fill:#e5c88f; stroke:none;" d="M399 318L402 326L399 318z"/>
    <path style="fill:#f4fdd6; stroke:none;" d="M273 319L272 334L273 334L273 319z"/>
    <path style="fill:#a57d26; stroke:none;" d="M391 319L388 332L393 326L395 333L398 335C404.959 332.399 408.672 326.062 406 319L401 320C402.447 325.484 403.727 329.597 397 331L399 319L391 319z"/>
    <path style="fill:#7f560d; stroke:none;" d="M409 320L400 341L389 335L401 345C404.498 338.979 411.805 326.892 409 320z"/>
    <path style="fill:#8c6417; stroke:none;" d="M312 321L314 329L326 324L315 323L312 321z"/>
    <path style="fill:#a57d26; stroke:none;" d="M360 329L349 328L349 322L341 323L346 331L346 328L347 328C356.373 332.096 363.733 332.069 369 322C363.039 320.77 361.216 323.446 360 329z"/>
    <path style="fill:#b29655; stroke:none;" d="M349 322L349 328L360 329L361 323L360 323L349 322z"/>
    <path style="fill:#e9bd59; stroke:none;" d="M410 322L408 332L412 331L410 322z"/>
    <path style="fill:#d1a844; stroke:none;" d="M280 323L279 326C281.992 328.077 286.857 331.336 288 326L287 326L286 328L284 323L283 323L282 325L280 323z"/>
    <path style="fill:#ebc474; stroke:none;" d="M317 334L336 334L338 336L344 335C339.003 323.196 321.863 319.27 317 334z"/>
    <path style="fill:#b38c3e; stroke:none;" d="M273 324C273.105 333.297 280.1 337.567 289 336C288.78 329.301 284.996 330.105 281 326L280 326L280 332L276 332L273 324z"/>
    <path style="fill:#d2b57c; stroke:none;" d="M278 324L276 332L280 332L280 324L278 324z"/>
    <path style="fill:#e9bd59; stroke:none;" d="M365 332L370 330L371 330L371 334L372 334L375 330L375 334L376 334L382 334L383 330C375.944 326.072 368.162 320.775 365 332z"/>
    <path style="fill:#c09d54; stroke:none;" d="M402 324L398 325L397 331C401.397 330.494 403.846 328.524 402 324z"/>
    <path style="fill:#8c6417; stroke:none;" d="M393 326L388 336L400 341L406 330L398 335L395 333L393 326z"/>
    <path style="fill:#c4ab60; stroke:none;" d="M364 330L359 336L366 333L371 336L371 342C374.321 340.901 374.737 339.41 375 336L378 338L379 338L384 331L383 331L382 334L380 332L376 334L375 334L375 330L372 334L371 334L371 330L370 330L369 332L365 332L364 330z"/>
    <path style="fill:#d1a844; stroke:none;" d="M407 330L406 336L407 336L408 334L411 335L411 341L413 331L407 330z"/>
    <path style="fill:#a57d26; stroke:none;" d="M274 331L273 336L276 340L278 341L290 338L290 333L289 333C285.167 339.245 278.357 334.399 274 331z"/>
    <path style="fill:#c09d54; stroke:none;" d="M319 340L322 340L323 337L324 337L324 342L332 342L332 338L344 341L347 341L345 334L338 336L337 336L336 334C329.569 336.974 314.923 327.765 319 340z"/>
    <path style="fill:#bf983b; stroke:none;" d="M366 333L355 340L368 342L368 346C371.759 346.124 373.138 345.251 375 342L378 343L382 335L379 338L378 338L375 336L371 342L371 336L366 333z"/>
    <path style="fill:#c09d54; stroke:none;" d="M272 334L272 342L274 342L272 334z"/>
    <path style="fill:#e9bd59; stroke:none;" d="M381 342L392 343L395 342C390.939 335.089 382.951 332.367 381 342z"/>
    <path style="fill:#a57d26; stroke:none;" d="M405 334L401 345C413.722 350.937 405.301 355.062 404 364C412.804 358.996 413.999 348.21 414 339L411 341L411 335L407 334L407 336L406 336L405 334z"/>
    <path style="fill:#d8b359; stroke:none;" d="M298 346L303 342L306 352L307 352L310 351L308 344L320 346C318.691 341.468 316.474 335.657 310.996 335.242C305.161 334.799 293.152 338.755 298 346z"/>
    <path style="fill:#d6e2b1; stroke:none;" d="M271 336L271 340L272 340L271 336z"/>
    <path style="fill:#b38c3e; stroke:none;" d="M323 337L320 340C322.204 346.403 326.016 345.258 331 348L347 341L344 341L332 338L332 342L324 342L323 337z"/>
    <path style="fill:#d1a844; stroke:none;" d="M279 344L283 355L284 355L287 348L289 352L294 351L297 352L298 351C294.576 340.185 288.488 339 279 344M380 341L376 350L377 350L378 347L384 347L385 347L385 350L386 350L386 344L390 347L393 347L397 346C397.056 342.756 394.81 340.245 392 343L380 341z"/>
    <path style="fill:#f4fdd6; stroke:none;" d="M272 342L270 351L270 352L272 354L273 354L272 342z"/>
    <path style="fill:#bf983b; stroke:none;" d="M300 347L301 347L302 350L303 342L300 347z"/>
    <path style="fill:#ebc474; stroke:none;" d="M339 348L339 349L356 346L355 349L363 351C356.577 340.07 348.049 342.462 339 348z"/>
    <path style="fill:#8c6417; stroke:none;" d="M398 343L394 352L392 351L391 355L375 356C376.952 359.434 382.606 361.814 383.654 365.326C386.207 373.873 371.079 376.358 366 376L355 368C349.829 373.421 354.386 378.41 361 379C363.358 383.276 366.576 383.038 371 382L376 390C378.954 392.905 378.762 394.33 377 398C387.512 393.593 389.786 395.231 400 400L405 390L404 390L402 394L401 394L396 388L391 388C393.161 383.761 396.286 378.31 400.104 375.358C405.524 371.168 410.693 376.424 411 367L405 367L406 363L397 361L396 361L395 361L391 364C392.746 357.939 401.215 348.979 398 343z"/>
    <path style="fill:#ebc474; stroke:none;" d="M273 344L273 354L272 354L270 352L270 357L275 350L278 351C278.558 346.647 277.39 344.717 273 344z"/>
    <path style="fill:#b38c3e; stroke:none;" d="M308 344L310 351L307 352L306 352L304 348L301 347L300 347C299.566 356.693 308.789 356 316 356L315 353L322 352C321.351 343.646 314.108 345.996 308 344z"/>
    <path style="fill:#e5c88f; stroke:none;" d="M386 344L386 348L390 348L386 344z"/>
    <path style="fill:#bf983b; stroke:none;" d="M392 345L393 352L398 345L393 347L392 345z"/>
    <path style="fill:#d8b359; stroke:none;" d="M394 357L398 357L402 354L402 358L404 358L407 351L408 351L410 353C404.346 340.918 397.031 347.422 394 357z"/>
    <path style="fill:#d1a844; stroke:none;" d="M355 346L330 353L331 357L354 355L354 353L364 353L367 355C364.536 350.165 360.148 349.289 355 349L355 346z"/>
    <path style="fill:#a57d26; stroke:none;" d="M378 347L375 349L373 356L391 355L391 353L386 353L385 347L384 347L383 349L378 347z"/>
    <path style="fill:#c09d54; stroke:none;" d="M386 348L386 353C390.319 352.663 392.005 351.415 391 347L386 348z"/>
    <path style="fill:#b29655; stroke:none;" d="M287 348L287 360L298 360L298 359L287 348z"/>
    <path style="fill:#a57d26; stroke:none;" d="M278 351L275 350L275 356L282 360L272 360L272 361C277.837 363.665 283.415 363.885 283 356L284 356C287.156 364.687 297.202 363.92 304 360L299 351L294 351L290 351C290.855 356.319 292.993 357.63 298 359L298 360L287 360L286 352L284 355L283 355L281 349L278 351z"/>
    <path style="fill:#f5dc95; stroke:none;" d="M348 351L347 355L353 357L348 351z"/>
    <path style="fill:#bf983b; stroke:none;" d="M407 351L404 358L402 358L402 354L398 357C394.92 356.717 393.856 356.97 393 360L399 359C404.333 362.17 412.213 356.282 407 351z"/>
    <path style="fill:#b29655; stroke:none;" d="M274 352L271 360L282 360L275 356L276 352L274 352z"/>
    <path style="fill:#d2b786; stroke:none;" d="M346 353L345 358L348 360L352 360L354 355L353 355L352 357L346 353z"/>
    <path style="fill:#bf983b; stroke:none;" d="M354 353L352 360L348 360L345 356L344 356C344.168 370.133 361.857 362.216 367 355L364 353L354 353z"/>
    <path style="fill:#e9bd59; stroke:none;" d="M314 360L314 362C317.723 363.319 322.878 366.4 326 363L329 364L336 365C331.029 355.21 322.664 356.16 314 360z"/>
    <path style="fill:#a57d26; stroke:none;" d="M332 357C337.166 364.308 344.211 367.597 353 365L353 364C347.552 363.868 344.451 362.844 344 357L332 357z"/>
    <path style="fill:#e9bd59; stroke:none;" d="M362 365C368.622 363.245 377.76 366.168 384 369C386.623 357.634 366.532 352.722 362 365z"/>
    <path style="fill:#d8b359; stroke:none;" d="M411 356C408.662 359.524 405.285 364.394 411 366L411 356z"/>
    <path style="fill:#b38c3e; stroke:none;" d="M392 359L391 364L395 361L396 361L397 361L404 364L404 360L399 359L392 359z"/>
    <path style="fill:#c09d54; stroke:none;" d="M309 362C311.768 371.285 329.103 381.918 337 373L329 372L329 371L338 369L341 371C339.619 367.15 333.064 360.242 329 364L326 363C321.767 365.535 317.257 363.211 314 360L309 362z"/>
    <path style="fill:#bf983b; stroke:none;" d="M300 363L300 364L305 364L300 363z"/>
    <path style="fill:#b29655; stroke:none;" d="M361 363L357 369L368 369L367 375C374.372 377.61 380.745 375.026 383 367L376 366L375 367L376 373C370.213 370.953 369.694 368.496 368 363L361 363z"/>
    <path style="fill:#b38c3e; stroke:none;" d="M406 363L405 367L411 370L412 370L412 363L411 363L411 366L406 363z"/>
    <path style="fill:#d8b359; stroke:none;" d="M291 372L293 371L301 378C300.723 374.126 299.058 368.865 295 368L295 367L302 370L305 371L310 370C306.197 362.11 286.034 361.064 291 372z"/>
    <path style="fill:#e5c88f; stroke:none;" d="M369 364C369.068 369.671 370.402 371.638 376 373C375.454 368.201 373.393 365.906 369 364z"/>
    <path style="fill:#a57d26; stroke:none;" d="M278 366L278 367L287 367L278 366z"/>
    <path style="fill:#d1a844; stroke:none;" d="M380 376L386 378L387 378L389 372L397 377L399 371C390.688 365.421 384.581 366.178 380 376z"/>
    <path style="fill:#d8b359; stroke:none;" d="M290 376C293.092 362.774 273.264 368.41 277.623 371.977C281.24 374.937 286.238 372.159 290 376z"/>
    <path style="fill:#d1a844; stroke:none;" d="M295 367L295 368L298 368C298.651 372.12 300.759 375.362 305 373L315 376L311 369L305 371L302 370L295 367z"/>
    <path style="fill:#b38c3e; stroke:none;" d="M356 368L366 376L370 376L370 375L367 375L368 369L356 368z"/>
    <path style="fill:#f5dc95; stroke:none;" d="M275 368L275 372L276 372L275 368z"/>
    <path style="fill:#a57d26; stroke:none;" d="M313 370C318.002 376.051 324.376 377.937 332 378L313 370M337 369L329 371L329 372L337 373L333 376L333 377C337.803 376.276 341.164 375.126 342 370L337 369z"/>
    <path style="fill:#f4fdd6; stroke:none;" d="M411 370L405 392L406 392C408.582 386.855 413.184 375.41 411 370z"/>
    <path style="fill:#b38c3e; stroke:none;" d="M292 371L291 376L290 376L276 372L279 380L318 381L316 375L305 373L301 374L301 378L292 371z"/>
    <path style="fill:#d2b57c; stroke:none;" d="M389 372L389 381L391 381C391.984 377.414 392.12 374.376 389 372z"/>
    <path style="fill:#d8b359; stroke:none;" d="M397 379L402 379L402 389C413.85 381.123 403.447 365.626 397 379z"/>
    <path style="fill:#e5c88f; stroke:none;" d="M276 374L274 379L276 374z"/>
    <path style="fill:#e9bd59; stroke:none;" d="M327 382L327 383L340 381C341.003 385.712 345.668 387.056 350 388L349 383L358 383C350.119 369.974 337.526 376.447 327 382z"/>
    <path style="fill:#a57d26; stroke:none;" d="M374 382L388 387L396 377L392 375C391.14 380.536 388.106 381.801 383 383L386 376C380.145 375.193 376.615 376.47 374 382z"/>
    <path style="fill:#c09d54; stroke:none;" d="M387 376L383 383L390 382L387 376z"/>
    <path style="fill:#b29655; stroke:none;" d="M277 377L275 378C276.739 383.713 288.4 391.125 290 382L277 377z"/>
    <path style="fill:#a57d26; stroke:none;" d="M280 379L290 382L290 386L291 386L294 380L280 379z"/>
    <path style="fill:#b38c3e; stroke:none;" d="M396 379L391 388L396 388C395.903 391.768 397.884 392.329 401 394L402 394L407 384L402 389L402 379L396 379z"/>
    <path style="fill:#bf983b; stroke:none;" d="M327 383L332 391L316 392C320.456 397.332 329.465 396.02 336 396L334 391L352 392L352 386L363 387C359.595 380.862 354.798 383.12 349 383L350 388C346.011 386.67 339.173 384.309 340 381L327 383z"/>
    <path style="fill:#e5c88f; stroke:none;" d="M407 381L407 384L408 384L407 381z"/>
    <path style="fill:#e9bd59; stroke:none;" d="M328 387C324.252 381.232 308.075 382.236 303.712 387.584C299.919 392.235 307.668 391.975 310.001 391.075C312.676 390.042 315.14 389.172 318 388.802C321.385 388.363 324.658 387.688 328 387z"/>
    <path style="fill:#f4fdd6; stroke:none;" d="M278 384L285 397L278 384z"/>
    <path style="fill:#8c6417; stroke:none;" d="M352 386L352 392L334 391L336 396L320 396L320 397L328 398L317 403L314 398L308 396L306 396L305 401L298 400L302 402C299.416 406.209 296.528 405.825 292 405C297.253 413.072 314.312 402.49 322 413L313 413L308 415L308 416L317 418L315 420L315 421L339 423L322 427L322 428L359 428L359 427L355 427L358 424L358 423C349.793 424.384 343.009 425.009 337 418L342 417L342 416C334.569 413.27 322.84 411.407 318 405L336 401C336.544 395.857 356.176 390.891 362 388L352 386z"/>
    <path style="fill:#d8b359; stroke:none;" d="M362 391L377 392C373.693 385.553 365.824 384.285 362 391M312 390L314 397L322 398L322 397L316 392L332 391C327.301 385.377 318.259 387.691 312 390M282 389C284.035 394.948 286.551 398.749 293 400L288 396L288 395L302 394C299.465 385.263 289.014 388.114 282 389z"/>
    <path style="fill:#b29655; stroke:none;" d="M305 393C307.203 397.025 309.324 399.575 314 398L317 403C321.433 402.173 325.727 402.335 328 398L314 397L312 390L305 393z"/>
    <path style="fill:#bf983b; stroke:none;" d="M353 394L353 396C361.957 397.765 368.378 389.539 376 396L380 395L379 391L353 394z"/>
    <path style="fill:#a57d26; stroke:none;" d="M288 395L288 396L305 401C305.607 397.513 306.087 391.354 301 394L288 395z"/>
    <path style="fill:#d2b57c; stroke:none;" d="M366 392L365 401L370 403L372 397L366 392z"/>
    <path style="fill:#e5c8a9; stroke:none;" d="M367 392C367.728 395.351 368.597 396.412 372 397C371.423 393.526 370.474 392.577 367 392z"/>
    <path style="fill:#d1a844; stroke:none;" d="M376 401L381 401L381 408L385 409L390 408L399 403L400 400C390.796 393.93 383.384 390.741 376 401z"/>
    <path style="fill:#b38c3e; stroke:none;" d="M364 394C358.823 398.979 349.611 391.947 347 400L362 400L360 404L369 404L365 401L366 394L364 394z"/>
    <path style="fill:#a57d26; stroke:none;" d="M372 394L370 402L375 400L373 402L379 408L376 412L384 409L381 408L381 401L376 401L379 395L376 396L372 394z"/>
    <path style="fill:#c09d54; stroke:none;" d="M286 397L289 404L302 402L286 397z"/>
    <path style="fill:#b38c3e; stroke:none;" d="M339 399L339 400L344 400L339 399z"/>
    <path style="fill:#d8b359; stroke:none;" d="M320 405L320 406L350 406C346.335 394.127 327.919 402.753 320 405z"/>
    <path style="fill:#8c6417; stroke:none;" d="M351 402L351 403C355.533 405.954 358.45 408.58 364 407L360 404L362 400L351 402z"/>
    <path style="fill:#a57d26; stroke:none;" d="M290 405L301 406C297.731 403.379 292.969 401.071 290 405z"/>
    <path style="fill:#bf983b; stroke:none;" d="M350 404C344.217 408.702 325.351 406.05 318 405C320.669 408.054 324.376 406.118 327.853 407.603C332.271 409.489 340.748 421.577 345 411C339.955 412.183 336.478 411.914 334 407L335 407C338.499 411.158 351.345 410.571 354 406L350 404z"/>
    <path style="fill:#e9bd59; stroke:none;" d="M293 408C295.934 414.269 301.354 416.997 308 418L302 411L317 409L317 407L293 408z"/>
    <path style="fill:#a57d26; stroke:none;" d="M320 407C322.609 411.103 326.581 410.553 331 411C329.346 406.017 324.524 407 320 407M334 407C335.653 412.444 340.11 412.442 345 411L340 415L340 416C345.423 416.358 355.13 413.461 355 407C349.097 410.019 339.837 410.303 334 407M389 415L396 407C391.855 408.231 390.027 410.87 389 415z"/>
    <path style="fill:#d1a844; stroke:none;" d="M302 411L306 416L307 416L320 411L319 408L302 411z"/>
    <path style="fill:#d8b359; stroke:none;" d="M355 412L355 413L373 417C369.17 410.565 361.505 409.957 355 412z"/>
    <path style="fill:#c09d54; stroke:none;" d="M381 416L390 416L391 410L381 416z"/>
    <path style="fill:#b29655; stroke:none;" d="M307 414C308.459 423.079 316.493 422 324 422L324 421L315 421L315 420L317 418L308 416L308 415L313 413C316.704 413.849 319.653 414.319 322 411L307 414z"/>
    <path style="fill:#bf983b; stroke:none;" d="M337 420C343.668 419.157 356.397 415.898 362 420L363 420L371 415C360.424 414.079 344.861 409.522 337 420z"/>
    <path style="fill:#b29655; stroke:none;" d="M301 416L305 420L306 417L301 416z"/>
    <path style="fill:#a57d26; stroke:none;" d="M352 421L352 420L355 419L355 418L338 420L338 421L352 424.6L374 421L371 423C376.002 424.069 380.276 422.443 384 419L352 421z"/>
    <path style="fill:#8c6417; stroke:none;" d="M305 419L313 422L313 421L308 418L305 419z"/>
    <path style="fill:#d2b57c; stroke:none;" d="M352 420L352 421C356.361 422.274 359.676 422.214 362 418L352 420z"/>
    <path style="fill:#d1a844; stroke:none;" d="M355 427L372 425L371 422L374 421C368.881 417.673 357.991 422.057 355 427z"/>
    <path style="fill:#d8b359; stroke:none;" d="M309 422L309 423C314.773 426.186 331.631 426.739 336 421L309 422z"/>
    <path style="fill:#bf983b; stroke:none;" d="M316 425L316 426L335 427L335 426L331 426L331 425L339 423L316 425z"/>
    <path style="fill:#ebc474; stroke:none;" d="M331 425L331 426L336 426L331 425z"/>
    <path style="fill:#e5c8a9; stroke:none;" d="M327 428L327 429L332 429L327 428z"/>
    <path style="fill:#b29655; stroke:none;" d="M339 428L339 429L347 429L339 428z"/>
    <path style="fill:#e5c8a9; stroke:none;" d="M347 428L347 429L356 429L347 428z"/>
</svg>
